<?xml version="1.0" encoding="utf-8" ?>
<!-- Generator: Assembly 1.0 - http://assemblyapp.co -->
<svg version="1.1" xmlns="http://www.w3.org/2000/svg" xmlns:xlink="http://www.w3.org/1999/xlink" width="300" height="300" viewBox="0 0 300 300">
	<rect x="0" y="0" width="300" height="300" fill="#ffffff" />
	<g id="widget" transform="matrix(1,0,0,1,150,150)">
		<path d="M-6.83481,34.8827 L-12.039,34.8827 L-51.3219,-55.6024 Q-52.4131,-58.0366 -54.7633,-63.9962Q-58.0369,-72.0542 -61.6462,-74.8242Q-65.2556,-77.5941 -73.3136,-77.762L-73.3136,-81.6231 L-24.2939,-81.6231 L-24.2939,-77.762 Q-33.4431,-77.762 -36.5908,-76.419Q-39.7385,-75.076 -39.7385,-71.2988Q-39.7385,-68.8646 -35.7934,-59.8832L-3.0576,15.6609 L23.215,-47.2086 Q29.8461,-62.9889 29.8461,-67.7734Q29.8461,-77.4262 16.1642,-77.762L16.1642,-81.6231 L50.9145,-81.6231 L50.9145,-77.762 Q45.6264,-77.5941 41.5974,-73.9848Q37.5683,-70.3755 34.6305,-63.4086L26.9922,-45.5298 Z" fill="#000000" fill-opacity="1" />
		<path d="M0.197841,34.8827 L-5.00631,34.8827 L-44.2892,-55.6024 Q-45.3804,-58.0366 -47.7307,-63.9962Q-51.0043,-72.0542 -54.6136,-74.8242Q-58.2229,-77.5941 -66.281,-77.762L-66.281,-81.6231 L-17.2612,-81.6231 L-17.2612,-77.762 Q-26.4105,-77.762 -29.5581,-76.419Q-32.7058,-75.076 -32.7058,-71.2988Q-32.7058,-68.8646 -28.7607,-59.8832L3.97505,15.6609 L30.2476,-47.2086 Q36.8787,-62.9889 36.8787,-67.7734Q36.8787,-77.4262 23.1968,-77.762L23.1968,-81.6231 L57.9471,-81.6231 L57.9471,-77.762 Q52.659,-77.5941 48.63,-73.9848Q44.601,-70.3755 41.6632,-63.4086L34.0248,-45.5298 Z" fill="#000000" fill-opacity="1" />
		<path d="M-1.31839,34.8827 L-7.01547,34.8827 L-7.01547,29.1856 L-1.31839,29.1856 L-1.31839,34.8827 Z" fill="#000000" fill-opacity="1" />
		<path d="M21.8857,-82.2702 L21.8857,-85.4416 L53.5261,-85.4416 L53.5261,-82.2702 L21.8857,-82.2702 Z" fill="#000000" fill-opacity="1" />
		<path d="M6.8348,-85.4416 L12.039,-85.4416 L51.3219,5.04349 Q52.4131,7.47769 54.7633,13.4373Q58.0369,21.4953 61.6462,24.2653Q65.2556,27.0352 73.3136,27.2031L73.3136,31.0642 L24.2939,31.0642 L24.2939,27.2031 Q33.4431,27.2031 36.5908,25.8601Q39.7385,24.5171 39.7385,20.7399Q39.7385,18.3057 35.7934,9.32432L3.0576,-66.2198 L-23.215,-3.3503 Q-29.8461,12.43 -29.8461,17.2145Q-29.8461,26.8673 -16.1642,27.2031L-16.1642,31.0642 L-50.9145,31.0642 L-50.9145,27.2031 Q-45.6264,27.0352 -41.5974,23.4259Q-37.5683,19.8166 -34.6305,12.8497L-26.9922,-5.02906 Z" fill="#000000" fill-opacity="1" />
		<path d="M-0.197843,-85.4416 L5.00631,-85.4416 L44.2892,5.04349 Q45.3804,7.47769 47.7307,13.4373Q51.0043,21.4953 54.6136,24.2653Q58.2229,27.0352 66.281,27.2031L66.281,31.0642 L17.2612,31.0642 L17.2612,27.2031 Q26.4105,27.2031 29.5581,25.8601Q32.7058,24.5171 32.7058,20.7399Q32.7058,18.3057 28.7607,9.32432L-3.97505,-66.2198 L-30.2476,-3.3503 Q-36.8787,12.43 -36.8787,17.2145Q-36.8787,26.8673 -23.1968,27.2031L-23.1968,31.0642 L-57.9471,31.0642 L-57.9471,27.2031 Q-52.659,27.0352 -48.63,23.4259Q-44.601,19.8166 -41.6632,12.8497L-34.0248,-5.02906 Z" fill="#000000" fill-opacity="1" />
		<path d="M1.31839,-85.4416 L7.01547,-85.4416 L7.01547,-79.7445 L1.31839,-79.7445 L1.31839,-85.4416 Z" fill="#000000" fill-opacity="1" />
		<path d="M-21.8857,31.7113 L-21.8857,34.8827 L-53.5261,34.8827 L-53.5261,31.7113 L-21.8857,31.7113 Z" fill="#000000" fill-opacity="1" />
		<path d="M-140.945,82.1369 L-121.972,82.1369 L-121.972,82.5581 L-140.945,82.5581 Z" fill="#000000" fill-opacity="1" />
		<path d="M-108.694,86.0012 L-104.171,75.727 L-100.361,75.727 L-100.361,76.1482 L-100.819,76.1482 Q-101.735,76.1482 -102.019,76.2993Q-102.303,76.4504 -102.399,76.8624Q-102.495,77.2745 -102.495,78.8221L-102.495,84.9115 Q-102.495,86.3766 -102.422,86.8299Q-102.348,87.2832 -102.051,87.5029Q-101.753,87.7227 -100.911,87.7227L-100.361,87.7227 L-100.361,88.1439 L-106.295,88.1439 L-106.295,87.7227 L-105.855,87.7227 Q-105.068,87.7227 -104.761,87.5212Q-104.454,87.3198 -104.367,86.894Q-104.28,86.4682 -104.28,84.9115L-104.28,77.009 L-109.198,88.1439 L-109.628,88.1439 L-114.582,77.009 L-114.582,84.2797 Q-114.582,85.7723 -114.491,86.3125Q-114.399,86.8528 -113.923,87.2603Q-113.447,87.6678 -112.586,87.7227L-112.586,88.1439 L-117.027,88.1439 L-117.027,87.7227 Q-116.23,87.6769 -115.731,87.2877Q-115.232,86.8986 -115.122,86.3308Q-115.013,85.7631 -115.013,84.2247L-115.013,78.8221 Q-115.013,77.3386 -115.1,76.9082Q-115.187,76.4778 -115.466,76.313Q-115.745,76.1482 -116.688,76.1482L-117.027,76.1482 L-117.027,75.727 L-113.245,75.727 Z" fill="#000000" fill-opacity="1" />
		<path d="M-91.9093,83.5654 L-96.6252,83.5654 L-96.9457,84.3529 Q-97.6599,86.0653 -97.6599,86.5872Q-97.6599,87.1458 -97.2799,87.4343Q-96.8999,87.7227 -96.3047,87.7227L-96.3047,88.1439 L-99.995,88.1439 L-99.995,87.7227 Q-99.1708,87.5945 -98.7679,87.1412Q-98.365,86.688 -97.7973,85.232Q-97.7515,85.0946 -97.3577,84.1698L-93.7499,75.553 L-93.3927,75.553 L-89.2446,85.4151 L-88.6769,86.7154 Q-88.4846,87.155 -88.1595,87.4068Q-87.8344,87.6586 -87.1843,87.7227L-87.1843,88.1439 L-92.065,88.1439 L-92.065,87.7227 Q-91.1676,87.7227 -90.8517,87.5899Q-90.5357,87.4571 -90.5357,87.0634Q-90.5357,86.8619 -90.957,85.8638Z M-92.065,83.1533 L-94.2627,77.8606 L-96.4512,83.1533 Z" fill="#000000" fill-opacity="1" />
		<path d="M-86.818,76.1482 L-86.818,75.727 L-81.1406,75.727 L-81.1406,76.1482 L-81.4062,76.1482 Q-82.3219,76.1482 -82.6057,76.2993Q-82.8896,76.4504 -82.9858,76.8624Q-83.0819,77.2745 -83.0819,78.8221L-83.0819,84.9115 Q-83.0819,86.3766 -83.0132,86.8299Q-82.9445,87.2832 -82.6469,87.5029Q-82.3493,87.7227 -81.5069,87.7227L-81.1406,87.7227 L-81.1406,88.1439 L-86.818,88.1439 L-86.818,87.7227 L-86.4517,87.7227 Q-85.655,87.7227 -85.3483,87.5212Q-85.0415,87.3198 -84.9591,86.894Q-84.8767,86.4682 -84.8767,84.9115L-84.8767,78.8221 Q-84.8767,77.3386 -84.9591,76.9082Q-85.0415,76.4778 -85.3254,76.313Q-85.6093,76.1482 -86.5524,76.1482Z" fill="#000000" fill-opacity="1" />
		<path d="M-79.5839,88.0157 L-79.5839,84.0233 L-79.1261,84.0233 Q-78.3477,87.9242 -75.4358,87.9242Q-74.1263,87.9242 -73.4075,87.1779Q-72.6887,86.4316 -72.6887,85.5067Q-72.6887,84.5727 -73.3205,83.9408Q-73.9523,83.3182 -75.6281,82.6039Q-77.1207,81.9629 -77.8807,81.4822Q-78.6407,81.0014 -79.0665,80.2322Q-79.4923,79.463 -79.4923,78.5931Q-79.4923,77.2654 -78.5721,76.3817Q-77.6518,75.498 -76.2416,75.498Q-75.4541,75.498 -74.7581,75.7544Q-74.0622,76.0108 -73.3296,76.8167Q-72.9084,76.313 -72.8535,75.727L-72.4506,75.727 L-72.4506,78.9777 L-72.8535,78.9777 Q-73.2014,77.5584 -74.0851,76.7434Q-74.9688,75.9284 -76.1317,75.9284Q-77.2397,75.9284 -77.7571,76.5282Q-78.2745,77.128 -78.2745,77.8422Q-78.2745,78.703 -77.6243,79.2982Q-76.9833,79.9026 -75.3076,80.6535Q-73.7051,81.3677 -72.9771,81.8027Q-72.2491,82.2376 -71.8096,83.0068Q-71.37,83.776 -71.37,84.7833Q-71.37,86.3766 -72.4323,87.3747Q-73.4945,88.3729 -75.2709,88.3729Q-77.313,88.3729 -78.6774,86.807Q-78.9795,87.2374 -79.1261,88.0157Z" fill="#000000" fill-opacity="1" />
		<path d="M-69.5478,81.853 Q-69.5478,78.9777 -67.6248,77.2379Q-65.7018,75.498 -62.8265,75.498Q-59.9237,75.498 -57.9779,77.2196Q-56.032,78.9411 -56.032,81.9171Q-56.032,84.8016 -57.8954,86.5872Q-59.7589,88.3729 -62.799,88.3729Q-65.7568,88.3729 -67.6523,86.5872Q-69.5478,84.8016 -69.5478,81.853Z M-67.4508,81.9171 Q-67.4508,84.9115 -66.2558,86.4132Q-65.0608,87.915 -62.6708,87.915Q-60.5739,87.915 -59.356,86.4132Q-58.1381,84.9115 -58.1381,81.9354Q-58.1381,79.0418 -59.3377,77.4989Q-60.5373,75.9559 -62.8174,75.9559Q-65.0608,75.9559 -66.2558,77.4622Q-67.4508,78.9686 -67.4508,81.9171Z" fill="#000000" fill-opacity="1" />
		<path d="M-43.5326,88.4278 L-52.3142,76.7892 L-52.3142,85.406 Q-52.3142,86.4773 -52.2089,86.8162Q-52.1036,87.155 -51.6091,87.4388Q-51.1146,87.7227 -50.1257,87.7227L-50.1257,88.1439 L-54.7592,88.1439 L-54.7592,87.7227 Q-53.8709,87.6586 -53.4039,87.3976Q-52.9369,87.1367 -52.8499,86.8345Q-52.7629,86.5323 -52.7629,85.406L-52.7629,78.8221 Q-52.7629,77.3936 -52.8957,76.9082Q-53.0285,76.4229 -53.3169,76.2855Q-53.6054,76.1482 -54.6035,76.1482L-54.6035,75.727 L-50.9407,75.727 L-43.5876,85.4426 L-43.5876,78.0162 Q-43.5876,77.1921 -43.757,76.8624Q-43.9264,76.5328 -44.4483,76.3405Q-44.9703,76.1482 -45.7028,76.1482L-45.7028,75.727 L-41.1976,75.727 L-41.1976,76.1482 Q-41.9851,76.2123 -42.4383,76.4504Q-42.8916,76.6885 -43.0152,77.0227Q-43.1389,77.3569 -43.1389,78.1536L-43.1389,88.4278 Z" fill="#000000" fill-opacity="1" />
		<path d="M-35.8865,75.8277 L-33.8445,75.727 Q-31.2896,75.5988 -30.4014,75.5988Q-27.636,75.5988 -26.0884,76.4412Q-24.5409,77.2837 -23.7854,78.7259Q-23.03,80.1681 -23.03,82.0545Q-23.03,83.4189 -23.442,84.5498Q-23.8541,85.6807 -24.5729,86.427Q-25.2918,87.1733 -26.2395,87.5625Q-27.1873,87.9516 -28.0389,88.0478Q-28.8905,88.1439 -30.438,88.1439L-35.9414,88.1439 L-35.9414,87.7227 L-35.4286,87.7227 Q-34.632,87.7227 -34.3252,87.5212Q-34.0184,87.3198 -33.9314,86.894Q-33.8445,86.4682 -33.8445,84.9115L-33.8445,78.9228 Q-33.8445,77.4393 -33.9314,77.0044Q-34.0184,76.5694 -34.2977,76.4092Q-34.577,76.2489 -35.5202,76.2489L-35.8865,76.2489 Z M-32.0588,76.0841 L-32.0588,84.3804 Q-32.0588,86.2209 -31.9902,86.7521Q-31.9215,87.2832 -31.5781,87.4984Q-31.2347,87.7135 -30.1267,87.7135Q-28.5059,87.7135 -27.462,87.2694Q-26.4181,86.8253 -25.7176,85.5204Q-25.0171,84.2156 -25.0171,82.1918Q-25.0171,80.6168 -25.4245,79.3806Q-25.832,78.1444 -26.5921,77.3707Q-27.3521,76.5969 -28.277,76.3176Q-29.2018,76.0383 -30.6486,76.0383Q-31.3446,76.0383 -32.0588,76.0841Z" fill="#000000" fill-opacity="1" />
		<path d="M-11.3639,84.2797 L-10.9244,84.2797 L-11.1899,88.1439 L-21.4733,88.1439 L-21.4733,87.7227 L-21.2169,87.7227 Q-20.292,87.7227 -20.0219,87.4755Q-19.7518,87.2282 -19.6785,86.8482Q-19.6052,86.4682 -19.6052,84.9115L-19.6052,78.8221 Q-19.6052,77.4027 -19.6831,76.954Q-19.7609,76.5053 -20.0402,76.3268Q-20.3195,76.1482 -21.2169,76.1482L-21.2169,75.727 L-12.3437,75.727 L-12.0507,78.8221 L-12.4811,78.8221 Q-12.7741,77.5218 -13.1999,76.9769Q-13.6257,76.4321 -14.2117,76.2901Q-14.7978,76.1482 -16.0981,76.1482L-17.8196,76.1482 L-17.8196,81.3586 L-16.501,81.3586 Q-15.5945,81.3586 -15.2328,81.2029Q-14.871,81.0472 -14.7566,80.7313Q-14.6421,80.4154 -14.6421,79.4997L-14.2117,79.4997 L-14.2117,83.7485 L-14.6421,83.7485 Q-14.6421,82.7138 -14.8161,82.3613Q-14.9901,82.0087 -15.3243,81.9034Q-15.6586,81.7981 -16.4552,81.7981L-17.8196,81.7981 L-17.8196,84.7375 Q-17.8196,86.9444 -17.5357,87.3335Q-17.2519,87.7227 -16.0065,87.7227L-15.0817,87.7227 Q-14.1019,87.7227 -13.47,87.4709Q-12.8382,87.2191 -12.2659,86.4361Q-11.6936,85.6532 -11.3639,84.2797Z" fill="#000000" fill-opacity="1" />
		<path d="M5.51254,84.4903 L5.42097,88.1439 L-5.12795,88.1439 L-5.12795,87.7227 L-4.76167,87.7227 Q-3.965,87.7227 -3.65824,87.5212Q-3.35148,87.3198 -3.26449,86.894Q-3.1775,86.4682 -3.1775,84.9115L-3.1775,78.8221 Q-3.1775,77.3386 -3.26449,76.9082Q-3.35148,76.4778 -3.63077,76.313Q-3.91006,76.1482 -4.85324,76.1482L-5.12795,76.1482 L-5.12795,75.727 L0.833291,75.727 L0.833291,76.1482 L0.283869,76.1482 Q-0.631836,76.1482 -0.915705,76.2993Q-1.19957,76.4504 -1.29572,76.8624Q-1.39187,77.2745 -1.39187,78.8221L-1.39187,85.3236 Q-1.39187,86.6696 -1.31862,87.0085Q-1.24536,87.3473 -0.920283,87.535Q-0.595208,87.7227 0.476167,87.7227L1.41934,87.7227 Q2.56397,87.7227 3.11798,87.5212Q3.67198,87.3198 4.17104,86.6422Q4.67009,85.9645 5.08216,84.4903Z" fill="#000000" fill-opacity="1" />
		<path d="M13.763,83.5654 L9.04716,83.5654 L8.72667,84.3529 Q8.01242,86.0653 8.01242,86.5872Q8.01242,87.1458 8.39244,87.4343Q8.77245,87.7227 9.36766,87.7227L9.36766,88.1439 L5.67737,88.1439 L5.67737,87.7227 Q6.5015,87.5945 6.90441,87.1412Q7.30733,86.688 7.87506,85.232Q7.92085,85.0946 8.3146,84.1698L11.9225,75.553 L12.2796,75.553 L16.4277,85.4151 L16.9955,86.7154 Q17.1878,87.155 17.5129,87.4068Q17.8379,87.6586 18.4881,87.7227L18.4881,88.1439 L13.6074,88.1439 L13.6074,87.7227 Q14.5048,87.7227 14.8207,87.5899Q15.1366,87.4571 15.1366,87.0634Q15.1366,86.8619 14.7154,85.8638Z M13.6074,83.1533 L11.4097,77.8606 L9.22115,83.1533 Z" fill="#000000" fill-opacity="1" />
		<path d="M30.3648,88.437 L29.797,88.437 L25.5115,78.5657 Q25.3925,78.3001 25.1361,77.6499Q24.779,76.7709 24.3852,76.4687Q23.9915,76.1665 23.1124,76.1482L23.1124,75.727 L28.4601,75.727 L28.4601,76.1482 Q27.462,76.1482 27.1186,76.2947Q26.7752,76.4412 26.7752,76.8533Q26.7752,77.1188 27.2056,78.0986L30.7768,86.34 L33.643,79.4814 Q34.3664,77.7598 34.3664,77.2379Q34.3664,76.1848 32.8738,76.1482L32.8738,75.727 L36.6648,75.727 L36.6648,76.1482 Q36.0879,76.1665 35.6484,76.5603Q35.2089,76.954 34.8884,77.714L34.0551,79.6645 Z" fill="#000000" fill-opacity="1" />
		<path d="M37.2142,76.1482 L37.2142,75.727 L42.8916,75.727 L42.8916,76.1482 L42.6261,76.1482 Q41.7104,76.1482 41.4265,76.2993Q41.1426,76.4504 41.0465,76.8624Q40.9503,77.2745 40.9503,78.8221L40.9503,84.9115 Q40.9503,86.3766 41.019,86.8299Q41.0877,87.2832 41.3853,87.5029Q41.6829,87.7227 42.5253,87.7227L42.8916,87.7227 L42.8916,88.1439 L37.2142,88.1439 L37.2142,87.7227 L37.5805,87.7227 Q38.3772,87.7227 38.684,87.5212Q38.9907,87.3198 39.0731,86.894Q39.1555,86.4682 39.1555,84.9115L39.1555,78.8221 Q39.1555,77.3386 39.0731,76.9082Q38.9907,76.4778 38.7068,76.313Q38.423,76.1482 37.4798,76.1482Z" fill="#000000" fill-opacity="1" />
		<path d="M55.217,83.483 L55.6108,83.483 L55.6108,87.8326 L55.217,87.8326 Q55.0522,87.0909 54.6218,86.5231Q52.9827,88.3729 50.437,88.3729Q47.7449,88.3729 46.0371,86.6696Q44.3293,84.9664 44.3293,82.1644Q44.3293,80.3238 45.1168,78.6984Q45.9043,77.0731 47.3145,76.2855Q48.7247,75.498 50.4096,75.498Q51.8014,75.498 52.9323,76.0704Q54.0632,76.6427 54.6218,77.3386Q55.0156,76.5603 55.098,75.727L55.5009,75.727 L55.6108,80.4337 L55.217,80.4337 Q54.8049,77.9247 53.5367,76.9449Q52.2684,75.9651 50.6751,75.9651Q48.7247,75.9651 47.5754,77.5492Q46.4262,79.1334 46.4262,82.082Q46.4262,84.8749 47.6808,86.3629Q48.9353,87.8509 50.8033,87.8509Q51.8014,87.8509 52.8453,87.3656Q53.8892,86.8803 54.4982,85.7219Q55.1071,84.5635 55.217,83.483Z" fill="#000000" fill-opacity="1" />
		<path d="M57.7444,78.7122 L57.3231,78.7122 L57.3872,75.727 L69.4379,75.727 L69.502,78.7122 L69.1082,78.7122 Q68.8976,77.4851 68.5314,76.9403Q68.1651,76.3954 67.7438,76.2718Q67.3226,76.1482 66.3062,76.1482L64.31,76.1482 L64.31,84.9115 Q64.31,86.3675 64.3786,86.8253Q64.4473,87.2832 64.7495,87.5029Q65.0517,87.7227 65.885,87.7227L66.4893,87.7227 L66.4893,88.1439 L60.2992,88.1439 L60.2992,87.7227 L60.9402,87.7227 Q61.7368,87.7227 62.0436,87.5212Q62.3503,87.3198 62.4373,86.894Q62.5243,86.4682 62.5243,84.9115L62.5243,76.1482 L60.6838,76.1482 Q59.4842,76.1482 59.0721,76.2627Q58.6601,76.3771 58.2984,76.954Q57.9366,77.5309 57.7444,78.7122Z" fill="#000000" fill-opacity="1" />
		<path d="M70.8939,81.853 Q70.8939,78.9777 72.8169,77.2379Q74.7398,75.498 77.6151,75.498Q80.5179,75.498 82.4638,77.2196Q84.4097,78.9411 84.4097,81.9171Q84.4097,84.8016 82.5462,86.5872Q80.6828,88.3729 77.6426,88.3729Q74.6849,88.3729 72.7894,86.5872Q70.8939,84.8016 70.8939,81.853Z M72.9908,81.9171 Q72.9908,84.9115 74.1858,86.4132Q75.3808,87.915 77.7708,87.915Q79.8678,87.915 81.0857,86.4132Q82.3036,84.9115 82.3036,81.9354Q82.3036,79.0418 81.104,77.4989Q79.9044,75.9559 77.6243,75.9559Q75.3808,75.9559 74.1858,77.4622Q72.9908,78.9686 72.9908,81.9171Z" fill="#000000" fill-opacity="1" />
		<path d="M85.8473,76.1482 L85.8473,75.727 L91.5247,75.727 L91.5247,76.1482 L91.2592,76.1482 Q90.3434,76.1482 90.0596,76.2993Q89.7757,76.4504 89.6796,76.8624Q89.5834,77.2745 89.5834,78.8221L89.5834,84.9115 Q89.5834,86.3766 89.6521,86.8299Q89.7208,87.2832 90.0184,87.5029Q90.316,87.7227 91.1584,87.7227L91.5247,87.7227 L91.5247,88.1439 L85.8473,88.1439 L85.8473,87.7227 L86.2136,87.7227 Q87.0103,87.7227 87.317,87.5212Q87.6238,87.3198 87.7062,86.894Q87.7886,86.4682 87.7886,84.9115L87.7886,78.8221 Q87.7886,77.3386 87.7062,76.9082Q87.6238,76.4778 87.3399,76.313Q87.0561,76.1482 86.1129,76.1482Z" fill="#000000" fill-opacity="1" />
		<path d="M105.636,88.1439 L102.293,88.1439 Q101.405,87.5212 99.5738,84.884Q98.9877,84.0416 98.3559,83.2678Q97.724,82.494 97.4859,82.3246Q97.2479,82.1552 96.7442,82.1552L96.2497,82.1552 L96.2497,84.9115 Q96.2497,86.3766 96.3184,86.8299Q96.3871,87.2832 96.6847,87.5029Q96.9823,87.7227 97.8248,87.7227L98.42,87.7227 L98.42,88.1439 L92.477,88.1439 L92.477,87.7227 L92.8799,87.7227 Q93.6766,87.7227 93.9834,87.5212Q94.2901,87.3198 94.3725,86.894Q94.455,86.4682 94.455,84.9115L94.455,78.8221 Q94.455,77.3386 94.3725,76.9082Q94.2901,76.4778 94.0063,76.313Q93.7224,76.1482 92.7792,76.1482L92.5686,76.1482 L92.5686,75.727 L94.3451,75.6354 Q96.1215,75.553 97.1654,75.553Q98.9419,75.553 100.054,75.8826Q101.167,76.2123 101.854,76.9632Q102.541,77.714 102.541,78.758Q102.541,79.9758 101.643,80.8366Q100.746,81.6974 99.006,81.908Q99.7844,82.2834 101.515,84.6185Q102.925,86.514 103.731,87.1Q104.537,87.6861 105.636,87.7227Z M96.2497,81.734 Q96.9365,81.7157 97.6691,81.6791Q98.4016,81.6424 98.9419,81.4776Q99.4822,81.3128 99.8164,80.9969Q100.151,80.6809 100.343,80.1681Q100.535,79.6553 100.535,78.9045Q100.535,77.595 99.8805,76.8075Q99.2258,76.02 97.0281,76.02Q96.6893,76.02 96.2497,76.0566Z" fill="#000000" fill-opacity="1" />
		<path d="M116.377,84.2797 L116.816,84.2797 L116.551,88.1439 L106.268,88.1439 L106.268,87.7227 L106.524,87.7227 Q107.449,87.7227 107.719,87.4755Q107.989,87.2282 108.062,86.8482Q108.136,86.4682 108.136,84.9115L108.136,78.8221 Q108.136,77.4027 108.058,76.954Q107.98,76.5053 107.701,76.3268Q107.421,76.1482 106.524,76.1482L106.524,75.727 L115.397,75.727 L115.69,78.8221 L115.26,78.8221 Q114.967,77.5218 114.541,76.9769Q114.115,76.4321 113.529,76.2901Q112.943,76.1482 111.643,76.1482L109.921,76.1482 L109.921,81.3586 L111.24,81.3586 Q112.146,81.3586 112.508,81.2029Q112.87,81.0472 112.984,80.7313Q113.099,80.4154 113.099,79.4997L113.529,79.4997 L113.529,83.7485 L113.099,83.7485 Q113.099,82.7138 112.925,82.3613Q112.751,82.0087 112.417,81.9034Q112.082,81.7981 111.286,81.7981L109.921,81.7981 L109.921,84.7375 Q109.921,86.9444 110.205,87.3335Q110.489,87.7227 111.734,87.7227L112.659,87.7227 Q113.639,87.7227 114.271,87.4709Q114.903,87.2191 115.475,86.4361Q116.047,85.6532 116.377,84.2797Z" fill="#000000" fill-opacity="1" />
		<path d="M121.972,82.1369 L140.945,82.1369 L140.945,82.5581 L121.972,82.5581 Z" fill="#000000" fill-opacity="1" />
	</g>
</svg>