<?xml version="1.0" standalone="no"?><!-- Generator: Gravit.io --><svg xmlns="http://www.w3.org/2000/svg" xmlns:xlink="http://www.w3.org/1999/xlink" style="isolation:isolate" viewBox="0 0 300 242.131" width="300" height="242.131"><path d=" M 136.466 241.976 L 126.009 241.993 L 46.775 60.306 Q 44.574 55.418 39.832 43.451 Q 33.227 27.27 25.966 21.717 Q 18.704 16.163 2.512 15.852 L 2.499 8.094 L 100.998 7.931 L 101.011 15.689 Q 82.626 15.72 76.306 18.429 Q 69.986 21.138 69.998 28.728 Q 70.006 33.619 77.963 51.653 L 143.992 203.34 L 196.575 76.925 Q 209.847 45.194 209.831 35.581 Q 209.799 16.184 182.306 15.555 L 182.293 7.797 L 252.119 7.681 L 252.132 15.44 Q 241.507 15.795 233.423 23.061 Q 225.339 30.326 219.459 44.335 L 204.17 80.286 L 136.466 241.976 Z " fill="rgb(0,0,0)"/><path d=" M 150.597 241.953 L 140.14 241.97 L 60.906 60.283 Q 58.705 55.395 53.963 43.428 Q 47.358 27.247 40.097 21.693 Q 32.835 16.139 16.643 15.829 L 16.63 8.07 L 115.129 7.908 L 115.142 15.666 Q 96.758 15.696 90.437 18.406 Q 84.117 21.115 84.129 28.704 Q 84.137 33.596 92.094 51.629 L 158.123 203.317 L 210.706 76.902 Q 223.978 45.171 223.962 35.557 Q 223.93 16.161 196.437 15.532 L 196.424 7.773 L 266.25 7.658 L 266.263 15.417 Q 255.638 15.771 247.554 23.037 Q 239.47 30.303 233.59 44.312 L 218.301 80.262 L 150.597 241.953 Z " fill="rgb(0,0,0)"/><path d=" M 147.55 241.958 L 136.103 241.977 L 136.084 230.529 L 147.532 230.51 L 147.55 241.958 Z " fill="rgb(0,0,0)"/><path d=" M 193.787 6.478 L 193.777 0.105 L 257.354 0 L 257.364 6.373 L 193.787 6.478 Z " fill="rgb(0,0,0)"/><path d=" M 163.534 0.155 L 173.991 0.138 L 253.225 181.825 Q 255.426 186.713 260.168 198.68 Q 266.773 214.861 274.034 220.415 Q 281.296 225.968 297.488 226.279 L 297.501 234.038 L 199.002 234.2 L 198.99 226.442 Q 217.374 226.411 223.694 223.702 Q 230.014 220.993 230.002 213.404 Q 229.994 208.512 222.037 190.479 L 156.008 38.791 L 103.425 165.206 Q 90.153 196.937 90.169 206.551 Q 90.201 225.947 117.694 226.576 L 117.707 234.334 L 47.881 234.45 L 47.868 226.691 Q 58.493 226.336 66.577 219.071 Q 74.661 211.805 80.541 197.796 L 95.83 161.846 L 163.534 0.155 Z " fill="rgb(0,0,0)"/><path d=" M 149.403 0.178 L 159.86 0.161 L 239.094 181.849 Q 241.295 186.736 246.037 198.703 Q 252.642 214.884 259.903 220.438 Q 267.165 225.992 283.357 226.302 L 283.37 234.061 L 184.871 234.224 L 184.858 226.465 Q 203.243 226.435 209.563 223.726 Q 215.883 221.017 215.871 213.427 Q 215.863 208.536 207.906 190.502 L 141.877 38.815 L 89.294 165.23 Q 76.022 196.96 76.038 206.574 Q 76.07 225.97 103.563 226.599 L 103.576 234.358 L 33.75 234.473 L 33.737 226.715 Q 44.362 226.36 52.446 219.094 Q 60.53 211.828 66.41 197.819 L 81.699 161.869 L 149.403 0.178 Z " fill="rgb(0,0,0)"/><path d=" M 152.449 0.173 L 163.897 0.154 L 163.916 11.602 L 152.468 11.621 L 152.449 0.173 Z " fill="rgb(0,0,0)"/><path d=" M 106.213 235.654 L 106.223 242.026 L 42.646 242.131 L 42.635 235.759 L 106.213 235.654 Z " fill="rgb(0,0,0)"/></svg>