<?xml version="1.0" encoding="utf-8" ?>
<!-- Generator: Assembly 1.0 - http://assemblyapp.co -->
<svg version="1.1" xmlns="http://www.w3.org/2000/svg" xmlns:xlink="http://www.w3.org/1999/xlink" width="300" height="300" viewBox="0 0 300 300">
	<g id="widget" transform="matrix(1,0,0,1,150,150)">
		<path d="M-12.831,125.082 L-23.2881,125.099 L-102.522,-56.5881 Q-104.723,-61.4756 -109.465,-73.4429Q-116.07,-89.6236 -123.331,-95.1774Q-130.593,-100.731 -146.785,-101.042L-146.798,-108.8 L-48.2994,-108.963 L-48.2865,-101.205 Q-66.6707,-101.174 -72.9911,-98.4652Q-79.3115,-95.7561 -79.2989,-88.1663Q-79.2909,-83.2751 -71.3339,-65.2414L-5.30501,86.4459 L47.2776,-39.9692 Q60.5496,-71.6997 60.5337,-81.3134Q60.5017,-100.71 33.0086,-101.339L32.9958,-109.097 L102.822,-109.213 L102.835,-101.454 Q92.2096,-101.099 84.1258,-93.8334Q76.042,-86.5676 70.1619,-72.5589L54.873,-36.6085 Z" fill="#000000" fill-opacity="1" />
		<path d="M1.30016,125.059 L-9.1569,125.076 L-88.391,-56.6114 Q-90.5917,-61.499 -95.334,-73.4662Q-101.939,-89.6469 -109.2,-95.2008Q-116.462,-100.755 -132.654,-101.065L-132.667,-108.824 L-34.1682,-108.986 L-34.1554,-101.228 Q-52.5395,-101.198 -58.8599,-98.4885Q-65.1803,-95.7795 -65.1678,-88.1897Q-65.1597,-83.2985 -57.2027,-65.2647L8.82617,86.4226 L61.4088,-39.9925 Q74.6807,-71.723 74.6649,-81.3368Q74.6328,-100.733 47.1398,-101.362L47.127,-109.121 L116.953,-109.236 L116.966,-101.477 Q106.341,-101.123 98.257,-93.8567Q90.1731,-86.5909 84.2931,-72.5822L69.0042,-36.6318 Z" fill="#000000" fill-opacity="1" />
		<path d="M-1.74651,125.064 L-13.194,125.083 L-13.2129,113.635 L-1.76542,113.616 L-1.74651,125.064 Z" fill="#000000" fill-opacity="1" />
		<path d="M44.4903,-110.416 L44.4798,-116.789 L108.057,-116.894 L108.067,-110.521 L44.4903,-110.416 Z" fill="#000000" fill-opacity="1" />
		<path d="M14.237,-116.739 L24.694,-116.756 L103.928,64.9312 Q106.129,69.8188 110.871,81.786Q117.476,97.9667 124.737,103.521Q131.999,109.074 148.191,109.385L148.204,117.144 L49.7053,117.306 L49.6925,109.548 Q68.0767,109.517 74.3971,106.808Q80.7174,104.099 80.7049,96.5095Q80.6968,91.6183 72.7399,73.5845L6.71097,-78.1028 L-45.8717,48.3124 Q-59.1436,80.0429 -59.1277,89.6566Q-59.0957,109.053 -31.6027,109.682L-31.5898,117.44 L-101.416,117.556 L-101.429,109.797 Q-90.8036,109.442 -82.7198,102.177Q-74.636,94.9108 -68.756,80.902L-53.467,44.9517 Z" fill="#000000" fill-opacity="1" />
		<path d="M0.105807,-116.716 L10.5629,-116.733 L89.797,64.9546 Q91.9977,69.8422 96.74,81.8094Q103.345,97.9901 110.606,103.544Q117.868,109.098 134.06,109.408L134.073,117.167 L35.5741,117.33 L35.5613,109.571 Q53.9455,109.541 60.2659,106.832Q66.5862,104.123 66.5737,96.5328Q66.5656,91.6416 58.6087,73.6079L-7.42021,-78.0794 L-60.0028,48.3357 Q-73.2748,80.0662 -73.2589,89.6799Q-73.2269,109.076 -45.7338,109.705L-45.721,117.464 L-115.547,117.579 L-115.56,109.821 Q-104.935,109.466 -96.851,102.2Q-88.7672,94.9341 -82.8871,80.9254L-67.5982,44.975 Z" fill="#000000" fill-opacity="1" />
		<path d="M3.15247,-116.721 L14.6,-116.74 L14.6189,-105.292 L3.17138,-105.273 L3.15247,-116.721 Z" fill="#000000" fill-opacity="1" />
		<path d="M-43.0843,118.76 L-43.0738,125.132 L-106.651,125.237 L-106.662,118.865 L-43.0843,118.76 Z" fill="#000000" fill-opacity="1" />
	</g>
</svg>